# xmcd
#
# Track frame offsets: 
#        150
#        11898
#        23859
#        33606
#        50873
#        61768
#        73548
#        92853
#        107680
#        120154
#        136486
#        148927
#        158314
#        177442
#        186505
#        205120
#        225615
#        235353
#
# Disc length: 3212 seconds
#
# Revision: 0
# Processed by: cddbd v1.5.2PL0 Copyright (c) Steve Scherf et al.
# Submitted via: ExactAudioCopy v1.0b3
#
DISCID=000c8a12
DTITLE=Hamp Garnett - Boogie Woogie Piano
DYEAR=2008
DGENRE=Blues
TTITLE0=Big Bug Boogie
TTITLE1=Mississippi Boogie
TTITLE2=Lafayette Boogie
TTITLE3=Hey Ray
TTITLE4=Durango Boogie Train
TTITLE5=Queensborough Special
TTITLE6=Sans Souci Boogie
TTITLE7=Bad Luck Boogie Woogie
TTITLE8=Roll' Em Boy
TTITLE9=Do You Wanna Boogie?
TTITLE10=New Orleans Is My Home
TTITLE11=Kansas City Bounce
TTITLE12=Gospel Train
TTITLE13=Yum Yum
TTITLE14=Road-House Boogie
TTITLE15=Crawlin'
TTITLE16=Dirty Boogie
TTITLE17=The Sparklet
EXTD=
EXTT0=
EXTT1=
EXTT2=
EXTT3=
EXTT4=
EXTT5=
EXTT6=
EXTT7=
EXTT8=
EXTT9=
EXTT10=
EXTT11=
EXTT12=
EXTT13=
EXTT14=
EXTT15=
EXTT16=
EXTT17=
PLAYORDER=
